<?xml version="1.0" standalone="no"?><!DOCTYPE svg PUBLIC "-//W3C//DTD SVG 1.1//EN" "http://www.w3.org/Graphics/SVG/1.1/DTD/svg11.dtd"><svg t="1737971170323" class="icon" viewBox="0 0 1024 1024" version="1.1" xmlns="http://www.w3.org/2000/svg" p-id="7628" width="28" height="28" xmlns:xlink="http://www.w3.org/1999/xlink"><path d="M901.7344 559.3088a30.72 30.72 0 0 0-30.72 30.72v211.1488a51.5584 51.5584 0 0 1-51.5072 51.5072H206.2848a51.5584 51.5584 0 0 1-51.5072-51.5072v-208.4864a30.72 30.72 0 0 0-61.44 0v208.4864a113.1008 113.1008 0 0 0 112.9472 112.9472h613.2224a113.1008 113.1008 0 0 0 112.9472-112.9472v-211.1488a30.72 30.72 0 0 0-30.72-30.72z" fill="#ffffff" p-id="7629"></path><path d="M493.7216 700.928a30.72 30.72 0 0 0 43.4176 0.6144L778.24 467.712a30.72 30.72 0 1 0-42.752-44.0832l-188.16 182.3744v-496.64a30.72 30.72 0 0 0-61.44 0v495.7184L308.3264 422.4512a30.72 30.72 0 0 0-44.032 42.9056z" fill="#ffffff" p-id="7630"></path></svg>